<svg xmlns="http://www.w3.org/2000/svg" width="24" height="24" viewBox="0 0 24 24">
    <path d="M6.218 17.112v1.681c.004.34.254.62.58.672l.1.009h.25c.34-.005.62-.255.672-.58l.008-.1v-1.682h1.446v1.681c-.004 1.122-.873 2.04-1.974 2.12l-.152.006h-.25c-1.121-.003-2.039-.872-2.12-1.974l-.006-.152v-1.681h1.446zm5.379-4.103c1.862 0 2.625 1.665 2.625 3.863 0 2.22-.752 3.85-2.614 3.85H9.985V13.01h1.612zm-7.16 0v1.256H3.204v6.458H1.717v-6.458H.487V13.01h3.95zm13.004 0l1.608 7.714h-1.492l-.231-1.48H15.88l-.231 1.48h-1.492l1.608-7.714h1.676zm2.557-.001l.982 3.11.995-3.11h1.538L21.71 17.53v3.191h-1.457V17.53l-1.804-4.522h1.55zm-8.39 1.285h-.14v5.146h.14c.752 0 1.122-.925 1.122-2.567 0-1.7-.37-2.58-1.122-2.58zm5 .346l-.554 3.342h1.098l-.544-3.342zm-9.46-1.828c1.122.003 2.04.872 2.12 1.974l.006.152v1.682H7.828v-1.682c-.004-.34-.254-.62-.58-.672l-.1-.009h-.25c-.34.005-.62.255-.672.58l-.008.1v1.683H4.772v-1.682c.004-1.122.873-2.04 1.975-2.12l.152-.006h.249zM5.663 3.08v6.456h1.993v1.258H4.18V3.08h1.482zm4.403 0v7.714H8.582V3.08h1.484zm2.423 0l1.507 4.268V3.08h1.484v7.714H14.09l-1.6-4.418v4.418h-1.497V3.08h1.497zm7.33 0v1.256h-2v1.97h1.826v1.258h-1.826v1.97h2v1.26h-3.476V3.081h3.475z"/>
</svg>
